<?xml version="1.0" encoding="UTF-8" standalone="no"?><svg xmlns="http://www.w3.org/2000/svg" xmlns:xlink="http://www.w3.org/1999/xlink" contentScriptType="application/ecmascript" contentStyleType="text/css" height="750px" preserveAspectRatio="none" style="width:1873px;height:750px;background:#FFFFFF;" version="1.1" viewBox="0 0 1873 750" width="1873px" zoomAndPan="magnify"><defs><filter height="300%" id="f1d9ksfx1lgm5l" width="300%" x="-1" y="-1"><feGaussianBlur result="blurOut" stdDeviation="2.0"/><feColorMatrix in="blurOut" result="blurOut2" type="matrix" values="0 0 0 0 0 0 0 0 0 0 0 0 0 0 0 0 0 0 .4 0"/><feOffset dx="4.0" dy="4.0" in="blurOut2" result="blurOut3"/><feBlend in="SourceGraphic" in2="blurOut3" mode="normal"/></filter></defs><g><rect fill="#FFFFFF" filter="url(#f1d9ksfx1lgm5l)" height="133.6641" style="stroke:#000000;stroke-width:2.0;" width="998" x="377" y="309.2266"/><rect fill="#FFFFFF" filter="url(#f1d9ksfx1lgm5l)" height="133.6641" style="stroke:#000000;stroke-width:2.0;" width="998" x="377" y="456.8906"/><line style="stroke:#A80036;stroke-width:1.0;stroke-dasharray:5.0,5.0;" x1="34" x2="34" y1="88.2969" y2="665.8203"/><line style="stroke:#A80036;stroke-width:1.0;stroke-dasharray:5.0,5.0;" x1="152" x2="152" y1="88.2969" y2="665.8203"/><line style="stroke:#A80036;stroke-width:1.0;stroke-dasharray:5.0,5.0;" x1="429" x2="429" y1="88.2969" y2="665.8203"/><line style="stroke:#A80036;stroke-width:1.0;stroke-dasharray:5.0,5.0;" x1="758.5" x2="758.5" y1="88.2969" y2="665.8203"/><line style="stroke:#A80036;stroke-width:1.0;stroke-dasharray:5.0,5.0;" x1="887.5" x2="887.5" y1="88.2969" y2="665.8203"/><line style="stroke:#A80036;stroke-width:1.0;stroke-dasharray:5.0,5.0;" x1="1288" x2="1288" y1="88.2969" y2="665.8203"/><text fill="#000000" font-family="sans-serif" font-size="14" lengthAdjust="spacing" textLength="53" x="5" y="84.9951">IexUser</text><ellipse cx="34.5" cy="15" fill="#FEFECE" filter="url(#f1d9ksfx1lgm5l)" rx="8" ry="8" style="stroke:#A80036;stroke-width:2.0;"/><path d="M34.5,23 L34.5,50 M21.5,31 L47.5,31 M34.5,50 L21.5,65 M34.5,50 L47.5,65 " fill="none" filter="url(#f1d9ksfx1lgm5l)" style="stroke:#A80036;stroke-width:2.0;"/><text fill="#000000" font-family="sans-serif" font-size="14" lengthAdjust="spacing" textLength="53" x="5" y="677.8154">IexUser</text><ellipse cx="34.5" cy="691.1172" fill="#FEFECE" filter="url(#f1d9ksfx1lgm5l)" rx="8" ry="8" style="stroke:#A80036;stroke-width:2.0;"/><path d="M34.5,699.1172 L34.5,726.1172 M21.5,707.1172 L47.5,707.1172 M34.5,726.1172 L21.5,741.1172 M34.5,726.1172 L47.5,741.1172 " fill="none" filter="url(#f1d9ksfx1lgm5l)" style="stroke:#A80036;stroke-width:2.0;"/><text fill="#000000" font-family="sans-serif" font-size="14" lengthAdjust="spacing" textLength="151" x="74" y="84.9951">TenSummonersTales</text><path d="M132,44 L132,68 M132,56 L149,56 " fill="none" filter="url(#f1d9ksfx1lgm5l)" style="stroke:#A80036;stroke-width:2.0;"/><ellipse cx="161" cy="56" fill="#FEFECE" filter="url(#f1d9ksfx1lgm5l)" rx="12" ry="12" style="stroke:#A80036;stroke-width:2.0;"/><text fill="#000000" font-family="sans-serif" font-size="14" lengthAdjust="spacing" textLength="151" x="74" y="677.8154">TenSummonersTales</text><path d="M132,685.1172 L132,709.1172 M132,697.1172 L149,697.1172 " fill="none" filter="url(#f1d9ksfx1lgm5l)" style="stroke:#A80036;stroke-width:2.0;"/><ellipse cx="161" cy="697.1172" fill="#FEFECE" filter="url(#f1d9ksfx1lgm5l)" rx="12" ry="12" style="stroke:#A80036;stroke-width:2.0;"/><text fill="#000000" font-family="sans-serif" font-size="14" lengthAdjust="spacing" textLength="79" x="387" y="84.9951">Summoner</text><ellipse cx="429.5" cy="56" fill="#FEFECE" filter="url(#f1d9ksfx1lgm5l)" rx="12" ry="12" style="stroke:#A80036;stroke-width:2.0;"/><line style="stroke:#A80036;stroke-width:2.0;" x1="417.5" x2="441.5" y1="70" y2="70"/><text fill="#000000" font-family="sans-serif" font-size="14" lengthAdjust="spacing" textLength="79" x="387" y="677.8154">Summoner</text><ellipse cx="429.5" cy="697.1172" fill="#FEFECE" filter="url(#f1d9ksfx1lgm5l)" rx="12" ry="12" style="stroke:#A80036;stroke-width:2.0;"/><line style="stroke:#A80036;stroke-width:2.0;" x1="417.5" x2="441.5" y1="711.1172" y2="711.1172"/><text fill="#000000" font-family="sans-serif" font-size="14" lengthAdjust="spacing" textLength="92" x="709.5" y="84.9951">RiotApiClient</text><ellipse cx="758.5" cy="56" fill="#FEFECE" filter="url(#f1d9ksfx1lgm5l)" rx="12" ry="12" style="stroke:#A80036;stroke-width:2.0;"/><line style="stroke:#A80036;stroke-width:2.0;" x1="746.5" x2="770.5" y1="70" y2="70"/><text fill="#000000" font-family="sans-serif" font-size="14" lengthAdjust="spacing" textLength="92" x="709.5" y="677.8154">RiotApiClient</text><ellipse cx="758.5" cy="697.1172" fill="#FEFECE" filter="url(#f1d9ksfx1lgm5l)" rx="12" ry="12" style="stroke:#A80036;stroke-width:2.0;"/><line style="stroke:#A80036;stroke-width:2.0;" x1="746.5" x2="770.5" y1="711.1172" y2="711.1172"/><text fill="#000000" font-family="sans-serif" font-size="14" lengthAdjust="spacing" textLength="134" x="817.5" y="84.9951">SummonerTracker</text><ellipse cx="887.5" cy="56" fill="#FEFECE" filter="url(#f1d9ksfx1lgm5l)" rx="12" ry="12" style="stroke:#A80036;stroke-width:2.0;"/><line style="stroke:#A80036;stroke-width:2.0;" x1="875.5" x2="899.5" y1="70" y2="70"/><text fill="#000000" font-family="sans-serif" font-size="14" lengthAdjust="spacing" textLength="134" x="817.5" y="677.8154">SummonerTracker</text><ellipse cx="887.5" cy="697.1172" fill="#FEFECE" filter="url(#f1d9ksfx1lgm5l)" rx="12" ry="12" style="stroke:#A80036;stroke-width:2.0;"/><line style="stroke:#A80036;stroke-width:2.0;" x1="875.5" x2="899.5" y1="711.1172" y2="711.1172"/><text fill="#000000" font-family="sans-serif" font-size="14" lengthAdjust="spacing" textLength="147" x="1212" y="84.9951">RiotDevelopmentApi</text><path d="M1268,44 L1268,68 M1268,56 L1285,56 " fill="none" filter="url(#f1d9ksfx1lgm5l)" style="stroke:#A80036;stroke-width:2.0;"/><ellipse cx="1297" cy="56" fill="#FEFECE" filter="url(#f1d9ksfx1lgm5l)" rx="12" ry="12" style="stroke:#A80036;stroke-width:2.0;"/><text fill="#000000" font-family="sans-serif" font-size="14" lengthAdjust="spacing" textLength="147" x="1212" y="677.8154">RiotDevelopmentApi</text><path d="M1268,685.1172 L1268,709.1172 M1268,697.1172 L1285,697.1172 " fill="none" filter="url(#f1d9ksfx1lgm5l)" style="stroke:#A80036;stroke-width:2.0;"/><ellipse cx="1297" cy="697.1172" fill="#FEFECE" filter="url(#f1d9ksfx1lgm5l)" rx="12" ry="12" style="stroke:#A80036;stroke-width:2.0;"/><polygon fill="#A80036" points="417.5,115.4297,427.5,119.4297,417.5,123.4297,421.5,119.4297" style="stroke:#A80036;stroke-width:1.0;"/><line style="stroke:#A80036;stroke-width:1.0;" x1="34.5" x2="423.5" y1="119.4297" y2="119.4297"/><text fill="#000000" font-family="sans-serif" font-size="13" font-weight="bold" lengthAdjust="spacing" textLength="9" x="41.5" y="114.3638">1</text><text fill="#000000" font-family="sans-serif" font-size="13" lengthAdjust="spacing" textLength="358" x="54.5" y="114.3638">fetch_summoner_opponents(summoner_name, region)</text><polygon fill="#A80036" points="746.5,144.5625,756.5,148.5625,746.5,152.5625,750.5,148.5625" style="stroke:#A80036;stroke-width:1.0;"/><line style="stroke:#A80036;stroke-width:1.0;" x1="429.5" x2="752.5" y1="148.5625" y2="148.5625"/><text fill="#000000" font-family="sans-serif" font-size="13" font-weight="bold" lengthAdjust="spacing" textLength="9" x="436.5" y="143.4966">2</text><text fill="#000000" font-family="sans-serif" font-size="13" lengthAdjust="spacing" textLength="110" x="449.5" y="143.4966">fetch_summoner</text><polygon fill="#A80036" points="1276.5,173.6953,1286.5,177.6953,1276.5,181.6953,1280.5,177.6953" style="stroke:#A80036;stroke-width:1.0;"/><line style="stroke:#A80036;stroke-width:1.0;" x1="758.5" x2="1282.5" y1="177.6953" y2="177.6953"/><text fill="#000000" font-family="sans-serif" font-size="13" font-weight="bold" lengthAdjust="spacing" textLength="9" x="765.5" y="172.6294">3</text><text fill="#000000" font-family="sans-serif" font-size="13" lengthAdjust="spacing" textLength="493" x="778.5" y="172.6294">Summoner-V4 (/lol/summoner/v4/summoners/by-name/{summonerName})</text><polygon fill="#A80036" points="769.5,202.8281,759.5,206.8281,769.5,210.8281,765.5,206.8281" style="stroke:#A80036;stroke-width:1.0;"/><line style="stroke:#A80036;stroke-width:1.0;" x1="763.5" x2="1287.5" y1="206.8281" y2="206.8281"/><text fill="#000000" font-family="sans-serif" font-size="13" font-weight="bold" lengthAdjust="spacing" textLength="9" x="775.5" y="201.7622">4</text><text fill="#000000" font-family="sans-serif" font-size="13" lengthAdjust="spacing" textLength="86" x="788.5" y="201.7622">{summoner}</text><polygon fill="#A80036" points="746.5,231.9609,756.5,235.9609,746.5,239.9609,750.5,235.9609" style="stroke:#A80036;stroke-width:1.0;"/><line style="stroke:#A80036;stroke-width:1.0;" x1="429.5" x2="752.5" y1="235.9609" y2="235.9609"/><text fill="#000000" font-family="sans-serif" font-size="13" font-weight="bold" lengthAdjust="spacing" textLength="9" x="436.5" y="230.895">5</text><text fill="#000000" font-family="sans-serif" font-size="13" lengthAdjust="spacing" textLength="142" x="449.5" y="230.895">fetch_matches(puuid)</text><polygon fill="#A80036" points="1276.5,261.0938,1286.5,265.0938,1276.5,269.0938,1280.5,265.0938" style="stroke:#A80036;stroke-width:1.0;"/><line style="stroke:#A80036;stroke-width:1.0;" x1="758.5" x2="1282.5" y1="265.0938" y2="265.0938"/><text fill="#000000" font-family="sans-serif" font-size="13" font-weight="bold" lengthAdjust="spacing" textLength="9" x="765.5" y="260.0278">6</text><text fill="#000000" font-family="sans-serif" font-size="13" lengthAdjust="spacing" textLength="360" x="778.5" y="260.0278">Match-V5 (/lol/match/v5/matches/by-puuid/{puuid}/ids)</text><polygon fill="#A80036" points="769.5,290.2266,759.5,294.2266,769.5,298.2266,765.5,294.2266" style="stroke:#A80036;stroke-width:1.0;"/><line style="stroke:#A80036;stroke-width:1.0;" x1="763.5" x2="1287.5" y1="294.2266" y2="294.2266"/><text fill="#000000" font-family="sans-serif" font-size="13" font-weight="bold" lengthAdjust="spacing" textLength="9" x="775.5" y="289.1606">7</text><text fill="#000000" font-family="sans-serif" font-size="13" lengthAdjust="spacing" textLength="66" x="788.5" y="289.1606">[matches]</text><path d="M377,309.2266 L453,309.2266 L453,316.2266 L443,326.2266 L377,326.2266 L377,309.2266 " fill="#EEEEEE" style="stroke:#000000;stroke-width:1.0;"/><rect fill="none" height="133.6641" style="stroke:#000000;stroke-width:2.0;" width="998" x="377" y="309.2266"/><text fill="#000000" font-family="sans-serif" font-size="13" font-weight="bold" lengthAdjust="spacing" textLength="31" x="392" y="322.2935">loop</text><text fill="#000000" font-family="sans-serif" font-size="11" font-weight="bold" lengthAdjust="spacing" textLength="131" x="468" y="321.437">[match-length times]</text><polygon fill="#A80036" points="746.5,343.4922,756.5,347.4922,746.5,351.4922,750.5,347.4922" style="stroke:#A80036;stroke-width:1.0;"/><line style="stroke:#A80036;stroke-width:1.0;" x1="429.5" x2="752.5" y1="347.4922" y2="347.4922"/><text fill="#000000" font-family="sans-serif" font-size="13" font-weight="bold" lengthAdjust="spacing" textLength="9" x="436.5" y="342.4263">8</text><text fill="#000000" font-family="sans-serif" font-size="13" lengthAdjust="spacing" textLength="151" x="449.5" y="342.4263">fetch_match(match_id)</text><polygon fill="#A80036" points="1276.5,372.625,1286.5,376.625,1276.5,380.625,1280.5,376.625" style="stroke:#A80036;stroke-width:1.0;"/><line style="stroke:#A80036;stroke-width:1.0;" x1="758.5" x2="1282.5" y1="376.625" y2="376.625"/><text fill="#000000" font-family="sans-serif" font-size="13" font-weight="bold" lengthAdjust="spacing" textLength="9" x="765.5" y="371.5591">9</text><text fill="#000000" font-family="sans-serif" font-size="13" lengthAdjust="spacing" textLength="293" x="778.5" y="371.5591">Match-V5 (/lol/match/v5/matches/{matchId})</text><polygon fill="#A80036" points="769.5,401.7578,759.5,405.7578,769.5,409.7578,765.5,405.7578" style="stroke:#A80036;stroke-width:1.0;"/><line style="stroke:#A80036;stroke-width:1.0;" x1="763.5" x2="1287.5" y1="405.7578" y2="405.7578"/><text fill="#000000" font-family="sans-serif" font-size="13" font-weight="bold" lengthAdjust="spacing" textLength="18" x="775.5" y="400.6919">10</text><text fill="#000000" font-family="sans-serif" font-size="13" lengthAdjust="spacing" textLength="57" x="797.5" y="400.6919">{match}</text><polygon fill="#A80036" points="440.5,430.8906,430.5,434.8906,440.5,438.8906,436.5,434.8906" style="stroke:#A80036;stroke-width:1.0;"/><line style="stroke:#A80036;stroke-width:1.0;" x1="434.5" x2="757.5" y1="434.8906" y2="434.8906"/><text fill="#000000" font-family="sans-serif" font-size="13" font-weight="bold" lengthAdjust="spacing" textLength="18" x="446.5" y="429.8247">11</text><text fill="#000000" font-family="sans-serif" font-size="13" lengthAdjust="spacing" textLength="151" x="468.5" y="429.8247">fetch_match(match_id)</text><path d="M377,456.8906 L453,456.8906 L453,463.8906 L443,473.8906 L377,473.8906 L377,456.8906 " fill="#EEEEEE" style="stroke:#000000;stroke-width:1.0;"/><rect fill="none" height="133.6641" style="stroke:#000000;stroke-width:2.0;" width="998" x="377" y="456.8906"/><text fill="#000000" font-family="sans-serif" font-size="13" font-weight="bold" lengthAdjust="spacing" textLength="31" x="392" y="469.9575">loop</text><text fill="#000000" font-family="sans-serif" font-size="11" font-weight="bold" lengthAdjust="spacing" textLength="264" x="468" y="469.1011">[unique-puuid-from-matches-count times]</text><path d="M1380,461.8906 L1380,486.8906 L1864,486.8906 L1864,471.8906 L1854,461.8906 L1380,461.8906 " fill="#FBFB77" filter="url(#f1d9ksfx1lgm5l)" style="stroke:#A80036;stroke-width:1.0;"/><path d="M1854,461.8906 L1854,471.8906 L1864,471.8906 L1854,461.8906 " fill="#FBFB77" style="stroke:#A80036;stroke-width:1.0;"/><text fill="#000000" font-family="sans-serif" font-size="13" lengthAdjust="spacing" textLength="463" x="1386" y="478.9575">ParticipantDto from the match contains the summonerName and puuid</text><polygon fill="#A80036" points="746.5,491.1563,756.5,495.1563,746.5,499.1563,750.5,495.1563" style="stroke:#A80036;stroke-width:1.0;"/><line style="stroke:#A80036;stroke-width:1.0;" x1="429.5" x2="752.5" y1="495.1563" y2="495.1563"/><text fill="#000000" font-family="sans-serif" font-size="13" font-weight="bold" lengthAdjust="spacing" textLength="18" x="436.5" y="490.0903">12</text><text fill="#000000" font-family="sans-serif" font-size="13" lengthAdjust="spacing" textLength="283" x="458.5" y="490.0903">fetch_summoner(summoner_name, region)</text><polygon fill="#A80036" points="1276.5,520.2891,1286.5,524.2891,1276.5,528.2891,1280.5,524.2891" style="stroke:#A80036;stroke-width:1.0;"/><line style="stroke:#A80036;stroke-width:1.0;" x1="758.5" x2="1282.5" y1="524.2891" y2="524.2891"/><text fill="#000000" font-family="sans-serif" font-size="13" font-weight="bold" lengthAdjust="spacing" textLength="18" x="765.5" y="519.2231">13</text><text fill="#000000" font-family="sans-serif" font-size="13" lengthAdjust="spacing" textLength="93" x="787.5" y="519.2231">Summoner-V4</text><polygon fill="#A80036" points="769.5,549.4219,759.5,553.4219,769.5,557.4219,765.5,553.4219" style="stroke:#A80036;stroke-width:1.0;"/><line style="stroke:#A80036;stroke-width:1.0;" x1="763.5" x2="1287.5" y1="553.4219" y2="553.4219"/><text fill="#000000" font-family="sans-serif" font-size="13" font-weight="bold" lengthAdjust="spacing" textLength="18" x="775.5" y="548.356">14</text><text fill="#000000" font-family="sans-serif" font-size="13" lengthAdjust="spacing" textLength="86" x="797.5" y="548.356">{summoner}</text><polygon fill="#A80036" points="440.5,578.5547,430.5,582.5547,440.5,586.5547,436.5,582.5547" style="stroke:#A80036;stroke-width:1.0;"/><line style="stroke:#A80036;stroke-width:1.0;" x1="434.5" x2="757.5" y1="582.5547" y2="582.5547"/><text fill="#000000" font-family="sans-serif" font-size="13" font-weight="bold" lengthAdjust="spacing" textLength="18" x="446.5" y="577.4888">15</text><text fill="#000000" font-family="sans-serif" font-size="13" lengthAdjust="spacing" textLength="86" x="468.5" y="577.4888">{summoner}</text><polygon fill="#A80036" points="875.5,614.6875,885.5,618.6875,875.5,622.6875,879.5,618.6875" style="stroke:#A80036;stroke-width:1.0;"/><line style="stroke:#A80036;stroke-width:1.0;" x1="429.5" x2="881.5" y1="618.6875" y2="618.6875"/><text fill="#000000" font-family="sans-serif" font-size="13" font-weight="bold" lengthAdjust="spacing" textLength="18" x="436.5" y="613.6216">16</text><text fill="#000000" font-family="sans-serif" font-size="13" lengthAdjust="spacing" textLength="207" x="458.5" y="613.6216">track_summoners([summoner])</text><polygon fill="#A80036" points="45.5,643.8203,35.5,647.8203,45.5,651.8203,41.5,647.8203" style="stroke:#A80036;stroke-width:1.0;"/><line style="stroke:#A80036;stroke-width:1.0;" x1="39.5" x2="428.5" y1="647.8203" y2="647.8203"/><text fill="#000000" font-family="sans-serif" font-size="13" font-weight="bold" lengthAdjust="spacing" textLength="18" x="51.5" y="642.7544">17</text><text fill="#000000" font-family="sans-serif" font-size="13" lengthAdjust="spacing" textLength="128" x="73.5" y="642.7544">[summoner names]</text><!--MD5=[efe22a568065f8a5d8a432391e9f0eef]
@startuml
'https://plantuml.com/sequence-diagram

autonumber

actor IexUser
boundary TenSummonersTales
entity Summoner
entity RiotApiClient
entity SummonerTracker
boundary RiotDevelopmentApi

IexUser -> Summoner : fetch_summoner_opponents(summoner_name, region)
Summoner -> RiotApiClient : fetch_summoner
RiotApiClient -> RiotDevelopmentApi : Summoner-V4 (/lol/summoner/v4/summoners/by-name/{summonerName})
RiotApiClient <- RiotDevelopmentApi : {summoner}
Summoner -> RiotApiClient : fetch_matches(puuid)
RiotApiClient -> RiotDevelopmentApi : Match-V5 (/lol/match/v5/matches/by-puuid/{puuid}/ids)
RiotApiClient <- RiotDevelopmentApi : [matches]

loop match-length times
  Summoner -> RiotApiClient : fetch_match(match_id)
  RiotApiClient -> RiotDevelopmentApi : Match-V5 (/lol/match/v5/matches/{matchId})
  RiotApiClient <- RiotDevelopmentApi : {match}
  Summoner <- RiotApiClient : fetch_match(match_id)
end

loop unique-puuid-from-matches-count times
  Summoner -> RiotApiClient : fetch_summoner(summoner_name, region)
  RiotApiClient -> RiotDevelopmentApi : Summoner-V4
  RiotApiClient <- RiotDevelopmentApi : {summoner}
  Summoner <- RiotApiClient : {summoner}
end
note left : ParticipantDto from the match contains the summonerName and puuid

Summoner -> SummonerTracker : track_summoners([summoner])

IexUser <- Summoner : [summoner names]

@enduml

@startuml

autonumber

actor IexUser
boundary TenSummonersTales
entity Summoner
entity RiotApiClient
entity SummonerTracker
boundary RiotDevelopmentApi

IexUser -> Summoner : fetch_summoner_opponents(summoner_name, region)
Summoner -> RiotApiClient : fetch_summoner
RiotApiClient -> RiotDevelopmentApi : Summoner-V4 (/lol/summoner/v4/summoners/by-name/{summonerName})
RiotApiClient <- RiotDevelopmentApi : {summoner}
Summoner -> RiotApiClient : fetch_matches(puuid)
RiotApiClient -> RiotDevelopmentApi : Match-V5 (/lol/match/v5/matches/by-puuid/{puuid}/ids)
RiotApiClient <- RiotDevelopmentApi : [matches]

loop match-length times
  Summoner -> RiotApiClient : fetch_match(match_id)
  RiotApiClient -> RiotDevelopmentApi : Match-V5 (/lol/match/v5/matches/{matchId})
  RiotApiClient <- RiotDevelopmentApi : {match}
  Summoner <- RiotApiClient : fetch_match(match_id)
end

loop unique-puuid-from-matches-count times
  Summoner -> RiotApiClient : fetch_summoner(summoner_name, region)
  RiotApiClient -> RiotDevelopmentApi : Summoner-V4
  RiotApiClient <- RiotDevelopmentApi : {summoner}
  Summoner <- RiotApiClient : {summoner}
end
note left : ParticipantDto from the match contains the summonerName and puuid

Summoner -> SummonerTracker : track_summoners([summoner])

IexUser <- Summoner : [summoner names]

@enduml

PlantUML version 1.2021.16(Wed Dec 08 09:25:22 PST 2021)
(GPL source distribution)
Java Runtime: OpenJDK Runtime Environment
JVM: OpenJDK 64-Bit Server VM
Default Encoding: UTF-8
Language: en
Country: CA
--></g></svg>