<?xml version="1.0" encoding="UTF-8" standalone="no"?><svg xmlns="http://www.w3.org/2000/svg" xmlns:xlink="http://www.w3.org/1999/xlink" contentScriptType="application/ecmascript" contentStyleType="text/css" height="498px" preserveAspectRatio="none" style="width:1209px;height:498px;background:#FFFFFF;" version="1.1" viewBox="0 0 1209 498" width="1209px" zoomAndPan="magnify"><defs><filter height="300%" id="f1xxu3hbx9za25" width="300%" x="-1" y="-1"><feGaussianBlur result="blurOut" stdDeviation="2.0"/><feColorMatrix in="blurOut" result="blurOut2" type="matrix" values="0 0 0 0 0 0 0 0 0 0 0 0 0 0 0 0 0 0 .4 0"/><feOffset dx="4.0" dy="4.0" in="blurOut2" result="blurOut3"/><feBlend in="SourceGraphic" in2="blurOut3" mode="normal"/></filter></defs><g><rect fill="#FFFFFF" filter="url(#f1xxu3hbx9za25)" height="234.0625" style="stroke:#000000;stroke-width:2.0;" width="798.5" x="397" y="163.5625"/><line style="stroke:#A80036;stroke-width:1.0;stroke-dasharray:5.0,5.0;" x1="34" x2="34" y1="88.2969" y2="414.625"/><line style="stroke:#A80036;stroke-width:1.0;stroke-dasharray:5.0,5.0;" x1="152" x2="152" y1="88.2969" y2="414.625"/><line style="stroke:#A80036;stroke-width:1.0;stroke-dasharray:5.0,5.0;" x1="462" x2="462" y1="88.2969" y2="414.625"/><line style="stroke:#A80036;stroke-width:1.0;stroke-dasharray:5.0,5.0;" x1="589.5" x2="589.5" y1="88.2969" y2="414.625"/><line style="stroke:#A80036;stroke-width:1.0;stroke-dasharray:5.0,5.0;" x1="719.5" x2="719.5" y1="88.2969" y2="414.625"/><line style="stroke:#A80036;stroke-width:1.0;stroke-dasharray:5.0,5.0;" x1="1031.5" x2="1031.5" y1="88.2969" y2="414.625"/><line style="stroke:#A80036;stroke-width:1.0;stroke-dasharray:5.0,5.0;" x1="1141.5" x2="1141.5" y1="88.2969" y2="414.625"/><text fill="#000000" font-family="sans-serif" font-size="14" lengthAdjust="spacing" textLength="53" x="5" y="84.9951">IexUser</text><ellipse cx="34.5" cy="15" fill="#FEFECE" filter="url(#f1xxu3hbx9za25)" rx="8" ry="8" style="stroke:#A80036;stroke-width:2.0;"/><path d="M34.5,23 L34.5,50 M21.5,31 L47.5,31 M34.5,50 L21.5,65 M34.5,50 L47.5,65 " fill="none" filter="url(#f1xxu3hbx9za25)" style="stroke:#A80036;stroke-width:2.0;"/><text fill="#000000" font-family="sans-serif" font-size="14" lengthAdjust="spacing" textLength="53" x="5" y="426.6201">IexUser</text><ellipse cx="34.5" cy="439.9219" fill="#FEFECE" filter="url(#f1xxu3hbx9za25)" rx="8" ry="8" style="stroke:#A80036;stroke-width:2.0;"/><path d="M34.5,447.9219 L34.5,474.9219 M21.5,455.9219 L47.5,455.9219 M34.5,474.9219 L21.5,489.9219 M34.5,474.9219 L47.5,489.9219 " fill="none" filter="url(#f1xxu3hbx9za25)" style="stroke:#A80036;stroke-width:2.0;"/><text fill="#000000" font-family="sans-serif" font-size="14" lengthAdjust="spacing" textLength="151" x="74" y="84.9951">TenSummonersTales</text><path d="M132,44 L132,68 M132,56 L149,56 " fill="none" filter="url(#f1xxu3hbx9za25)" style="stroke:#A80036;stroke-width:2.0;"/><ellipse cx="161" cy="56" fill="#FEFECE" filter="url(#f1xxu3hbx9za25)" rx="12" ry="12" style="stroke:#A80036;stroke-width:2.0;"/><text fill="#000000" font-family="sans-serif" font-size="14" lengthAdjust="spacing" textLength="151" x="74" y="426.6201">TenSummonersTales</text><path d="M132,433.9219 L132,457.9219 M132,445.9219 L149,445.9219 " fill="none" filter="url(#f1xxu3hbx9za25)" style="stroke:#A80036;stroke-width:2.0;"/><ellipse cx="161" cy="445.9219" fill="#FEFECE" filter="url(#f1xxu3hbx9za25)" rx="12" ry="12" style="stroke:#A80036;stroke-width:2.0;"/><text fill="#000000" font-family="sans-serif" font-size="14" lengthAdjust="spacing" textLength="105" x="407" y="84.9951">StandardPoller</text><ellipse cx="462.5" cy="56" fill="#FEFECE" filter="url(#f1xxu3hbx9za25)" rx="12" ry="12" style="stroke:#A80036;stroke-width:2.0;"/><line style="stroke:#A80036;stroke-width:2.0;" x1="450.5" x2="474.5" y1="70" y2="70"/><text fill="#000000" font-family="sans-serif" font-size="14" lengthAdjust="spacing" textLength="105" x="407" y="426.6201">StandardPoller</text><ellipse cx="462.5" cy="445.9219" fill="#FEFECE" filter="url(#f1xxu3hbx9za25)" rx="12" ry="12" style="stroke:#A80036;stroke-width:2.0;"/><line style="stroke:#A80036;stroke-width:2.0;" x1="450.5" x2="474.5" y1="459.9219" y2="459.9219"/><text fill="#000000" font-family="sans-serif" font-size="14" lengthAdjust="spacing" textLength="94" x="539.5" y="84.9951">ServiceClient</text><ellipse cx="589.5" cy="56" fill="#FEFECE" filter="url(#f1xxu3hbx9za25)" rx="12" ry="12" style="stroke:#A80036;stroke-width:2.0;"/><line style="stroke:#A80036;stroke-width:2.0;" x1="577.5" x2="601.5" y1="70" y2="70"/><text fill="#000000" font-family="sans-serif" font-size="14" lengthAdjust="spacing" textLength="94" x="539.5" y="426.6201">ServiceClient</text><ellipse cx="589.5" cy="445.9219" fill="#FEFECE" filter="url(#f1xxu3hbx9za25)" rx="12" ry="12" style="stroke:#A80036;stroke-width:2.0;"/><line style="stroke:#A80036;stroke-width:2.0;" x1="577.5" x2="601.5" y1="459.9219" y2="459.9219"/><text fill="#000000" font-family="sans-serif" font-size="14" lengthAdjust="spacing" textLength="134" x="649.5" y="84.9951">SummonerTracker</text><ellipse cx="719.5" cy="56" fill="#FEFECE" filter="url(#f1xxu3hbx9za25)" rx="12" ry="12" style="stroke:#A80036;stroke-width:2.0;"/><line style="stroke:#A80036;stroke-width:2.0;" x1="707.5" x2="731.5" y1="70" y2="70"/><text fill="#000000" font-family="sans-serif" font-size="14" lengthAdjust="spacing" textLength="134" x="649.5" y="426.6201">SummonerTracker</text><ellipse cx="719.5" cy="445.9219" fill="#FEFECE" filter="url(#f1xxu3hbx9za25)" rx="12" ry="12" style="stroke:#A80036;stroke-width:2.0;"/><line style="stroke:#A80036;stroke-width:2.0;" x1="707.5" x2="731.5" y1="459.9219" y2="459.9219"/><text fill="#000000" font-family="sans-serif" font-size="14" lengthAdjust="spacing" textLength="106" x="975.5" y="84.9951">MatchReporter</text><ellipse cx="1031.5" cy="56" fill="#FEFECE" filter="url(#f1xxu3hbx9za25)" rx="12" ry="12" style="stroke:#A80036;stroke-width:2.0;"/><line style="stroke:#A80036;stroke-width:2.0;" x1="1019.5" x2="1043.5" y1="70" y2="70"/><text fill="#000000" font-family="sans-serif" font-size="14" lengthAdjust="spacing" textLength="106" x="975.5" y="426.6201">MatchReporter</text><ellipse cx="1031.5" cy="445.9219" fill="#FEFECE" filter="url(#f1xxu3hbx9za25)" rx="12" ry="12" style="stroke:#A80036;stroke-width:2.0;"/><line style="stroke:#A80036;stroke-width:2.0;" x1="1019.5" x2="1043.5" y1="459.9219" y2="459.9219"/><text fill="#000000" font-family="sans-serif" font-size="14" lengthAdjust="spacing" textLength="82" x="1097.5" y="84.9951">ExternalApi</text><path d="M1121,44 L1121,68 M1121,56 L1138,56 " fill="none" filter="url(#f1xxu3hbx9za25)" style="stroke:#A80036;stroke-width:2.0;"/><ellipse cx="1150" cy="56" fill="#FEFECE" filter="url(#f1xxu3hbx9za25)" rx="12" ry="12" style="stroke:#A80036;stroke-width:2.0;"/><text fill="#000000" font-family="sans-serif" font-size="14" lengthAdjust="spacing" textLength="82" x="1097.5" y="426.6201">ExternalApi</text><path d="M1121,433.9219 L1121,457.9219 M1121,445.9219 L1138,445.9219 " fill="none" filter="url(#f1xxu3hbx9za25)" style="stroke:#A80036;stroke-width:2.0;"/><ellipse cx="1150" cy="445.9219" fill="#FEFECE" filter="url(#f1xxu3hbx9za25)" rx="12" ry="12" style="stroke:#A80036;stroke-width:2.0;"/><polygon fill="#A80036" points="450.5,115.4297,460.5,119.4297,450.5,123.4297,454.5,119.4297" style="stroke:#A80036;stroke-width:1.0;"/><line style="stroke:#A80036;stroke-width:1.0;" x1="34.5" x2="456.5" y1="119.4297" y2="119.4297"/><text fill="#000000" font-family="sans-serif" font-size="13" font-weight="bold" lengthAdjust="spacing" textLength="9" x="41.5" y="114.3638">1</text><text fill="#000000" font-family="sans-serif" font-size="13" lengthAdjust="spacing" textLength="391" x="54.5" y="114.3638">follow_summoner(summoner_id, polling_period, poll_count)</text><polygon fill="#A80036" points="45.5,144.5625,35.5,148.5625,45.5,152.5625,41.5,148.5625" style="stroke:#A80036;stroke-width:1.0;"/><line style="stroke:#A80036;stroke-width:1.0;" x1="39.5" x2="461.5" y1="148.5625" y2="148.5625"/><text fill="#000000" font-family="sans-serif" font-size="13" font-weight="bold" lengthAdjust="spacing" textLength="9" x="51.5" y="143.4966">2</text><text fill="#000000" font-family="sans-serif" font-size="13" lengthAdjust="spacing" textLength="175" x="64.5" y="143.4966">{:ok} or {:error, message}</text><path d="M397,163.5625 L473,163.5625 L473,170.5625 L463,180.5625 L397,180.5625 L397,163.5625 " fill="#EEEEEE" style="stroke:#000000;stroke-width:1.0;"/><rect fill="none" height="234.0625" style="stroke:#000000;stroke-width:2.0;" width="798.5" x="397" y="163.5625"/><text fill="#000000" font-family="sans-serif" font-size="13" font-weight="bold" lengthAdjust="spacing" textLength="31" x="412" y="176.6294">loop</text><text fill="#000000" font-family="sans-serif" font-size="11" font-weight="bold" lengthAdjust="spacing" textLength="114" x="488" y="175.7729">[poll_count times]</text><polygon fill="#A80036" points="577.5,197.8281,587.5,201.8281,577.5,205.8281,581.5,201.8281" style="stroke:#A80036;stroke-width:1.0;"/><line style="stroke:#A80036;stroke-width:1.0;" x1="462.5" x2="583.5" y1="201.8281" y2="201.8281"/><text fill="#000000" font-family="sans-serif" font-size="13" font-weight="bold" lengthAdjust="spacing" textLength="9" x="469.5" y="196.7622">3</text><text fill="#000000" font-family="sans-serif" font-size="13" lengthAdjust="spacing" textLength="24" x="482.5" y="196.7622">poll</text><polygon fill="#A80036" points="1129.5,226.9609,1139.5,230.9609,1129.5,234.9609,1133.5,230.9609" style="stroke:#A80036;stroke-width:1.0;"/><line style="stroke:#A80036;stroke-width:1.0;" x1="589.5" x2="1135.5" y1="230.9609" y2="230.9609"/><text fill="#000000" font-family="sans-serif" font-size="13" font-weight="bold" lengthAdjust="spacing" textLength="9" x="596.5" y="225.895">4</text><text fill="#000000" font-family="sans-serif" font-size="13" lengthAdjust="spacing" textLength="0" x="613.5" y="225.895"/><polygon fill="#A80036" points="600.5,256.0938,590.5,260.0938,600.5,264.0938,596.5,260.0938" style="stroke:#A80036;stroke-width:1.0;"/><line style="stroke:#A80036;stroke-width:1.0;" x1="594.5" x2="1140.5" y1="260.0938" y2="260.0938"/><text fill="#000000" font-family="sans-serif" font-size="13" font-weight="bold" lengthAdjust="spacing" textLength="9" x="606.5" y="255.0278">5</text><text fill="#000000" font-family="sans-serif" font-size="13" lengthAdjust="spacing" textLength="0" x="623.5" y="255.0278"/><polygon fill="#A80036" points="473.5,285.2266,463.5,289.2266,473.5,293.2266,469.5,289.2266" style="stroke:#A80036;stroke-width:1.0;"/><line style="stroke:#A80036;stroke-width:1.0;" x1="467.5" x2="588.5" y1="289.2266" y2="289.2266"/><text fill="#000000" font-family="sans-serif" font-size="13" font-weight="bold" lengthAdjust="spacing" textLength="9" x="479.5" y="284.1606">6</text><text fill="#000000" font-family="sans-serif" font-size="13" lengthAdjust="spacing" textLength="22" x="492.5" y="284.1606">[...]</text><polygon fill="#A80036" points="707.5,314.3594,717.5,318.3594,707.5,322.3594,711.5,318.3594" style="stroke:#A80036;stroke-width:1.0;"/><line style="stroke:#A80036;stroke-width:1.0;" x1="462.5" x2="713.5" y1="318.3594" y2="318.3594"/><text fill="#000000" font-family="sans-serif" font-size="13" font-weight="bold" lengthAdjust="spacing" textLength="9" x="469.5" y="313.2935">7</text><text fill="#000000" font-family="sans-serif" font-size="13" lengthAdjust="spacing" textLength="55" x="482.5" y="313.2935">track(...)</text><polygon fill="#A80036" points="1019.5,343.4922,1029.5,347.4922,1019.5,351.4922,1023.5,347.4922" style="stroke:#A80036;stroke-width:1.0;"/><line style="stroke:#A80036;stroke-width:1.0;" x1="719.5" x2="1025.5" y1="347.4922" y2="347.4922"/><text fill="#000000" font-family="sans-serif" font-size="13" font-weight="bold" lengthAdjust="spacing" textLength="9" x="726.5" y="342.4263">8</text><text fill="#000000" font-family="sans-serif" font-size="13" lengthAdjust="spacing" textLength="275" x="739.5" y="342.4263">report(summoner, summoner_competitor)</text><line style="stroke:#A80036;stroke-width:1.0;" x1="462.5" x2="504.5" y1="376.625" y2="376.625"/><line style="stroke:#A80036;stroke-width:1.0;" x1="504.5" x2="504.5" y1="376.625" y2="389.625"/><line style="stroke:#A80036;stroke-width:1.0;" x1="463.5" x2="504.5" y1="389.625" y2="389.625"/><polygon fill="#A80036" points="473.5,385.625,463.5,389.625,473.5,393.625,469.5,389.625" style="stroke:#A80036;stroke-width:1.0;"/><text fill="#000000" font-family="sans-serif" font-size="13" font-weight="bold" lengthAdjust="spacing" textLength="9" x="469.5" y="371.5591">9</text><text fill="#000000" font-family="sans-serif" font-size="13" lengthAdjust="spacing" textLength="100" x="482.5" y="371.5591">handle_ca[ll|st]</text><!--MD5=[ab737f1ae6fcd916a57181941cd991d0]
@startuml
'https://plantuml.com/sequence-diagram

autonumber

actor IexUser
boundary TenSummonersTales
entity StandardPoller
entity ServiceClient
entity SummonerTracker
entity MatchReporter
boundary ExternalApi

IexUser -> StandardPoller : follow_summoner(summoner_id, polling_period, poll_count)
IexUser <- StandardPoller : {:ok} or {:error, message}
loop poll_count times
  
  StandardPoller -> ServiceClient : poll
  ServiceClient -> ExternalApi
  ServiceClient <- ExternalApi
  StandardPoller <- ServiceClient : [...]
  
  StandardPoller -> SummonerTracker : track(...)
  SummonerTracker -> MatchReporter : report(summoner, summoner_competitor) 
  
  StandardPoller -> StandardPoller : handle_ca[ll|st]
end

@enduml

@startuml

autonumber

actor IexUser
boundary TenSummonersTales
entity StandardPoller
entity ServiceClient
entity SummonerTracker
entity MatchReporter
boundary ExternalApi

IexUser -> StandardPoller : follow_summoner(summoner_id, polling_period, poll_count)
IexUser <- StandardPoller : {:ok} or {:error, message}
loop poll_count times
  
  StandardPoller -> ServiceClient : poll
  ServiceClient -> ExternalApi
  ServiceClient <- ExternalApi
  StandardPoller <- ServiceClient : [...]
  
  StandardPoller -> SummonerTracker : track(...)
  SummonerTracker -> MatchReporter : report(summoner, summoner_competitor) 
  
  StandardPoller -> StandardPoller : handle_ca[ll|st]
end

@enduml

PlantUML version 1.2021.16(Wed Dec 08 09:25:22 PST 2021)
(GPL source distribution)
Java Runtime: OpenJDK Runtime Environment
JVM: OpenJDK 64-Bit Server VM
Default Encoding: UTF-8
Language: en
Country: CA
--></g></svg>