<?xml version="1.0" encoding="UTF-8" standalone="no"?><svg xmlns="http://www.w3.org/2000/svg" xmlns:xlink="http://www.w3.org/1999/xlink" contentScriptType="application/ecmascript" contentStyleType="text/css" height="718px" preserveAspectRatio="none" style="width:1729px;height:718px;background:#FFFFFF;" version="1.1" viewBox="0 0 1729 718" width="1729px" zoomAndPan="magnify"><defs><filter height="300%" id="fltsmnxwpgh7d" width="300%" x="-1" y="-1"><feGaussianBlur result="blurOut" stdDeviation="2.0"/><feColorMatrix in="blurOut" result="blurOut2" type="matrix" values="0 0 0 0 0 0 0 0 0 0 0 0 0 0 0 0 0 0 .4 0"/><feOffset dx="4.0" dy="4.0" in="blurOut2" result="blurOut3"/><feBlend in="SourceGraphic" in2="blurOut3" mode="normal"/></filter></defs><g><rect fill="#FFFFFF" filter="url(#fltsmnxwpgh7d)" height="133.6641" style="stroke:#000000;stroke-width:2.0;" width="897" x="818" y="396.625"/><line style="stroke:#A80036;stroke-width:1.0;stroke-dasharray:5.0,5.0;" x1="34" x2="34" y1="88.2969" y2="634.6875"/><line style="stroke:#A80036;stroke-width:1.0;stroke-dasharray:5.0,5.0;" x1="457" x2="457" y1="88.2969" y2="634.6875"/><line style="stroke:#A80036;stroke-width:1.0;stroke-dasharray:5.0,5.0;" x1="870" x2="870" y1="88.2969" y2="634.6875"/><line style="stroke:#A80036;stroke-width:1.0;stroke-dasharray:5.0,5.0;" x1="1098.5" x2="1098.5" y1="88.2969" y2="634.6875"/><line style="stroke:#A80036;stroke-width:1.0;stroke-dasharray:5.0,5.0;" x1="1227.5" x2="1227.5" y1="88.2969" y2="634.6875"/><line style="stroke:#A80036;stroke-width:1.0;stroke-dasharray:5.0,5.0;" x1="1628" x2="1628" y1="88.2969" y2="634.6875"/><text fill="#000000" font-family="sans-serif" font-size="14" lengthAdjust="spacing" textLength="53" x="5" y="84.9951">IexUser</text><ellipse cx="34.5" cy="15" fill="#FEFECE" filter="url(#fltsmnxwpgh7d)" rx="8" ry="8" style="stroke:#A80036;stroke-width:2.0;"/><path d="M34.5,23 L34.5,50 M21.5,31 L47.5,31 M34.5,50 L21.5,65 M34.5,50 L47.5,65 " fill="none" filter="url(#fltsmnxwpgh7d)" style="stroke:#A80036;stroke-width:2.0;"/><text fill="#000000" font-family="sans-serif" font-size="14" lengthAdjust="spacing" textLength="53" x="5" y="646.6826">IexUser</text><ellipse cx="34.5" cy="659.9844" fill="#FEFECE" filter="url(#fltsmnxwpgh7d)" rx="8" ry="8" style="stroke:#A80036;stroke-width:2.0;"/><path d="M34.5,667.9844 L34.5,694.9844 M21.5,675.9844 L47.5,675.9844 M34.5,694.9844 L21.5,709.9844 M34.5,694.9844 L47.5,709.9844 " fill="none" filter="url(#fltsmnxwpgh7d)" style="stroke:#A80036;stroke-width:2.0;"/><text fill="#000000" font-family="sans-serif" font-size="14" lengthAdjust="spacing" textLength="151" x="379" y="84.9951">TenSummonersTales</text><ellipse cx="457.5" cy="56" fill="#FEFECE" filter="url(#fltsmnxwpgh7d)" rx="12" ry="12" style="stroke:#A80036;stroke-width:2.0;"/><line style="stroke:#A80036;stroke-width:2.0;" x1="445.5" x2="469.5" y1="70" y2="70"/><text fill="#000000" font-family="sans-serif" font-size="14" lengthAdjust="spacing" textLength="151" x="379" y="646.6826">TenSummonersTales</text><ellipse cx="457.5" cy="665.9844" fill="#FEFECE" filter="url(#fltsmnxwpgh7d)" rx="12" ry="12" style="stroke:#A80036;stroke-width:2.0;"/><line style="stroke:#A80036;stroke-width:2.0;" x1="445.5" x2="469.5" y1="679.9844" y2="679.9844"/><text fill="#000000" font-family="sans-serif" font-size="14" lengthAdjust="spacing" textLength="79" x="828" y="84.9951">Summoner</text><ellipse cx="870.5" cy="56" fill="#FEFECE" filter="url(#fltsmnxwpgh7d)" rx="12" ry="12" style="stroke:#A80036;stroke-width:2.0;"/><line style="stroke:#A80036;stroke-width:2.0;" x1="858.5" x2="882.5" y1="70" y2="70"/><text fill="#000000" font-family="sans-serif" font-size="14" lengthAdjust="spacing" textLength="79" x="828" y="646.6826">Summoner</text><ellipse cx="870.5" cy="665.9844" fill="#FEFECE" filter="url(#fltsmnxwpgh7d)" rx="12" ry="12" style="stroke:#A80036;stroke-width:2.0;"/><line style="stroke:#A80036;stroke-width:2.0;" x1="858.5" x2="882.5" y1="679.9844" y2="679.9844"/><text fill="#000000" font-family="sans-serif" font-size="14" lengthAdjust="spacing" textLength="92" x="1049.5" y="84.9951">RiotApiClient</text><ellipse cx="1098.5" cy="56" fill="#FEFECE" filter="url(#fltsmnxwpgh7d)" rx="12" ry="12" style="stroke:#A80036;stroke-width:2.0;"/><line style="stroke:#A80036;stroke-width:2.0;" x1="1086.5" x2="1110.5" y1="70" y2="70"/><text fill="#000000" font-family="sans-serif" font-size="14" lengthAdjust="spacing" textLength="92" x="1049.5" y="646.6826">RiotApiClient</text><ellipse cx="1098.5" cy="665.9844" fill="#FEFECE" filter="url(#fltsmnxwpgh7d)" rx="12" ry="12" style="stroke:#A80036;stroke-width:2.0;"/><line style="stroke:#A80036;stroke-width:2.0;" x1="1086.5" x2="1110.5" y1="679.9844" y2="679.9844"/><text fill="#000000" font-family="sans-serif" font-size="14" lengthAdjust="spacing" textLength="134" x="1157.5" y="84.9951">SummonerTracker</text><ellipse cx="1227.5" cy="56" fill="#FEFECE" filter="url(#fltsmnxwpgh7d)" rx="12" ry="12" style="stroke:#A80036;stroke-width:2.0;"/><line style="stroke:#A80036;stroke-width:2.0;" x1="1215.5" x2="1239.5" y1="70" y2="70"/><text fill="#000000" font-family="sans-serif" font-size="14" lengthAdjust="spacing" textLength="134" x="1157.5" y="646.6826">SummonerTracker</text><ellipse cx="1227.5" cy="665.9844" fill="#FEFECE" filter="url(#fltsmnxwpgh7d)" rx="12" ry="12" style="stroke:#A80036;stroke-width:2.0;"/><line style="stroke:#A80036;stroke-width:2.0;" x1="1215.5" x2="1239.5" y1="679.9844" y2="679.9844"/><text fill="#000000" font-family="sans-serif" font-size="14" lengthAdjust="spacing" textLength="147" x="1552" y="84.9951">RiotDevelopmentApi</text><path d="M1608,44 L1608,68 M1608,56 L1625,56 " fill="none" filter="url(#fltsmnxwpgh7d)" style="stroke:#A80036;stroke-width:2.0;"/><ellipse cx="1637" cy="56" fill="#FEFECE" filter="url(#fltsmnxwpgh7d)" rx="12" ry="12" style="stroke:#A80036;stroke-width:2.0;"/><text fill="#000000" font-family="sans-serif" font-size="14" lengthAdjust="spacing" textLength="147" x="1552" y="646.6826">RiotDevelopmentApi</text><path d="M1608,653.9844 L1608,677.9844 M1608,665.9844 L1625,665.9844 " fill="none" filter="url(#fltsmnxwpgh7d)" style="stroke:#A80036;stroke-width:2.0;"/><ellipse cx="1637" cy="665.9844" fill="#FEFECE" filter="url(#fltsmnxwpgh7d)" rx="12" ry="12" style="stroke:#A80036;stroke-width:2.0;"/><polygon fill="#A80036" points="445.5,115.4297,455.5,119.4297,445.5,123.4297,449.5,119.4297" style="stroke:#A80036;stroke-width:1.0;"/><line style="stroke:#A80036;stroke-width:1.0;" x1="34.5" x2="451.5" y1="119.4297" y2="119.4297"/><text fill="#000000" font-family="sans-serif" font-size="13" font-weight="bold" lengthAdjust="spacing" textLength="9" x="41.5" y="114.3638">1</text><text fill="#000000" font-family="sans-serif" font-size="13" lengthAdjust="spacing" textLength="386" x="54.5" y="114.3638">fetch_and_track_associated_summoners_for(name, region)</text><polygon fill="#A80036" points="858.5,144.5625,868.5,148.5625,858.5,152.5625,862.5,148.5625" style="stroke:#A80036;stroke-width:1.0;"/><line style="stroke:#A80036;stroke-width:1.0;" x1="457.5" x2="864.5" y1="148.5625" y2="148.5625"/><text fill="#000000" font-family="sans-serif" font-size="13" font-weight="bold" lengthAdjust="spacing" textLength="9" x="464.5" y="143.4966">2</text><text fill="#000000" font-family="sans-serif" font-size="13" lengthAdjust="spacing" textLength="376" x="477.5" y="143.4966">retrieve_summoner_opponents(summoner_name, region)</text><polygon fill="#A80036" points="1086.5,173.6953,1096.5,177.6953,1086.5,181.6953,1090.5,177.6953" style="stroke:#A80036;stroke-width:1.0;"/><line style="stroke:#A80036;stroke-width:1.0;" x1="870.5" x2="1092.5" y1="177.6953" y2="177.6953"/><text fill="#000000" font-family="sans-serif" font-size="13" font-weight="bold" lengthAdjust="spacing" textLength="9" x="877.5" y="172.6294">3</text><text fill="#000000" font-family="sans-serif" font-size="13" lengthAdjust="spacing" textLength="110" x="890.5" y="172.6294">fetch_summoner</text><polygon fill="#A80036" points="1616.5,202.8281,1626.5,206.8281,1616.5,210.8281,1620.5,206.8281" style="stroke:#A80036;stroke-width:1.0;"/><line style="stroke:#A80036;stroke-width:1.0;" x1="1098.5" x2="1622.5" y1="206.8281" y2="206.8281"/><text fill="#000000" font-family="sans-serif" font-size="13" font-weight="bold" lengthAdjust="spacing" textLength="9" x="1105.5" y="201.7622">4</text><text fill="#000000" font-family="sans-serif" font-size="13" lengthAdjust="spacing" textLength="493" x="1118.5" y="201.7622">Summoner-V4 (/lol/summoner/v4/summoners/by-name/{summonerName})</text><polygon fill="#A80036" points="1109.5,231.9609,1099.5,235.9609,1109.5,239.9609,1105.5,235.9609" style="stroke:#A80036;stroke-width:1.0;"/><line style="stroke:#A80036;stroke-width:1.0;" x1="1103.5" x2="1627.5" y1="235.9609" y2="235.9609"/><text fill="#000000" font-family="sans-serif" font-size="13" font-weight="bold" lengthAdjust="spacing" textLength="9" x="1115.5" y="230.895">5</text><text fill="#000000" font-family="sans-serif" font-size="13" lengthAdjust="spacing" textLength="86" x="1128.5" y="230.895">{summoner}</text><polygon fill="#A80036" points="881.5,261.0938,871.5,265.0938,881.5,269.0938,877.5,265.0938" style="stroke:#A80036;stroke-width:1.0;"/><line style="stroke:#A80036;stroke-width:1.0;" x1="875.5" x2="1097.5" y1="265.0938" y2="265.0938"/><text fill="#000000" font-family="sans-serif" font-size="13" font-weight="bold" lengthAdjust="spacing" textLength="9" x="887.5" y="260.0278">6</text><text fill="#000000" font-family="sans-serif" font-size="13" lengthAdjust="spacing" textLength="86" x="900.5" y="260.0278">{summoner}</text><polygon fill="#A80036" points="1086.5,290.2266,1096.5,294.2266,1086.5,298.2266,1090.5,294.2266" style="stroke:#A80036;stroke-width:1.0;"/><line style="stroke:#A80036;stroke-width:1.0;" x1="870.5" x2="1092.5" y1="294.2266" y2="294.2266"/><text fill="#000000" font-family="sans-serif" font-size="13" font-weight="bold" lengthAdjust="spacing" textLength="9" x="877.5" y="289.1606">7</text><text fill="#000000" font-family="sans-serif" font-size="13" lengthAdjust="spacing" textLength="191" x="890.5" y="289.1606">fetch_matches(puuid, region)</text><polygon fill="#A80036" points="1616.5,319.3594,1626.5,323.3594,1616.5,327.3594,1620.5,323.3594" style="stroke:#A80036;stroke-width:1.0;"/><line style="stroke:#A80036;stroke-width:1.0;" x1="1098.5" x2="1622.5" y1="323.3594" y2="323.3594"/><text fill="#000000" font-family="sans-serif" font-size="13" font-weight="bold" lengthAdjust="spacing" textLength="9" x="1105.5" y="318.2935">8</text><text fill="#000000" font-family="sans-serif" font-size="13" lengthAdjust="spacing" textLength="360" x="1118.5" y="318.2935">Match-V5 (/lol/match/v5/matches/by-puuid/{puuid}/ids)</text><polygon fill="#A80036" points="1109.5,348.4922,1099.5,352.4922,1109.5,356.4922,1105.5,352.4922" style="stroke:#A80036;stroke-width:1.0;"/><line style="stroke:#A80036;stroke-width:1.0;" x1="1103.5" x2="1627.5" y1="352.4922" y2="352.4922"/><text fill="#000000" font-family="sans-serif" font-size="13" font-weight="bold" lengthAdjust="spacing" textLength="9" x="1115.5" y="347.4263">9</text><text fill="#000000" font-family="sans-serif" font-size="13" lengthAdjust="spacing" textLength="66" x="1128.5" y="347.4263">[matches]</text><polygon fill="#A80036" points="881.5,377.625,871.5,381.625,881.5,385.625,877.5,381.625" style="stroke:#A80036;stroke-width:1.0;"/><line style="stroke:#A80036;stroke-width:1.0;" x1="875.5" x2="1097.5" y1="381.625" y2="381.625"/><text fill="#000000" font-family="sans-serif" font-size="13" font-weight="bold" lengthAdjust="spacing" textLength="18" x="887.5" y="376.5591">10</text><text fill="#000000" font-family="sans-serif" font-size="13" lengthAdjust="spacing" textLength="67" x="909.5" y="376.5591">[{match}]</text><path d="M818,396.625 L894,396.625 L894,403.625 L884,413.625 L818,413.625 L818,396.625 " fill="#EEEEEE" style="stroke:#000000;stroke-width:1.0;"/><rect fill="none" height="133.6641" style="stroke:#000000;stroke-width:2.0;" width="897" x="818" y="396.625"/><text fill="#000000" font-family="sans-serif" font-size="13" font-weight="bold" lengthAdjust="spacing" textLength="31" x="833" y="409.6919">loop</text><text fill="#000000" font-family="sans-serif" font-size="11" font-weight="bold" lengthAdjust="spacing" textLength="131" x="909" y="408.8354">[match-length times]</text><polygon fill="#A80036" points="1086.5,430.8906,1096.5,434.8906,1086.5,438.8906,1090.5,434.8906" style="stroke:#A80036;stroke-width:1.0;"/><line style="stroke:#A80036;stroke-width:1.0;" x1="870.5" x2="1092.5" y1="434.8906" y2="434.8906"/><text fill="#000000" font-family="sans-serif" font-size="13" font-weight="bold" lengthAdjust="spacing" textLength="18" x="877.5" y="429.8247">11</text><text fill="#000000" font-family="sans-serif" font-size="13" lengthAdjust="spacing" textLength="151" x="899.5" y="429.8247">fetch_match(match_id)</text><polygon fill="#A80036" points="1616.5,460.0234,1626.5,464.0234,1616.5,468.0234,1620.5,464.0234" style="stroke:#A80036;stroke-width:1.0;"/><line style="stroke:#A80036;stroke-width:1.0;" x1="1098.5" x2="1622.5" y1="464.0234" y2="464.0234"/><text fill="#000000" font-family="sans-serif" font-size="13" font-weight="bold" lengthAdjust="spacing" textLength="18" x="1105.5" y="458.9575">12</text><text fill="#000000" font-family="sans-serif" font-size="13" lengthAdjust="spacing" textLength="293" x="1127.5" y="458.9575">Match-V5 (/lol/match/v5/matches/{matchId})</text><polygon fill="#A80036" points="1109.5,489.1563,1099.5,493.1563,1109.5,497.1563,1105.5,493.1563" style="stroke:#A80036;stroke-width:1.0;"/><line style="stroke:#A80036;stroke-width:1.0;" x1="1103.5" x2="1627.5" y1="493.1563" y2="493.1563"/><text fill="#000000" font-family="sans-serif" font-size="13" font-weight="bold" lengthAdjust="spacing" textLength="18" x="1115.5" y="488.0903">13</text><text fill="#000000" font-family="sans-serif" font-size="13" lengthAdjust="spacing" textLength="57" x="1137.5" y="488.0903">{match}</text><polygon fill="#A80036" points="881.5,518.2891,871.5,522.2891,881.5,526.2891,877.5,522.2891" style="stroke:#A80036;stroke-width:1.0;"/><line style="stroke:#A80036;stroke-width:1.0;" x1="875.5" x2="1097.5" y1="522.2891" y2="522.2891"/><text fill="#000000" font-family="sans-serif" font-size="13" font-weight="bold" lengthAdjust="spacing" textLength="18" x="887.5" y="517.2231">14</text><text fill="#000000" font-family="sans-serif" font-size="13" lengthAdjust="spacing" textLength="57" x="909.5" y="517.2231">{match}</text><polygon fill="#A80036" points="468.5,554.4219,458.5,558.4219,468.5,562.4219,464.5,558.4219" style="stroke:#A80036;stroke-width:1.0;"/><line style="stroke:#A80036;stroke-width:1.0;" x1="462.5" x2="869.5" y1="558.4219" y2="558.4219"/><text fill="#000000" font-family="sans-serif" font-size="13" font-weight="bold" lengthAdjust="spacing" textLength="18" x="474.5" y="553.356">15</text><text fill="#000000" font-family="sans-serif" font-size="13" lengthAdjust="spacing" textLength="181" x="496.5" y="553.356">[{summoner name, puuid}]</text><polygon fill="#A80036" points="1215.5,583.5547,1225.5,587.5547,1215.5,591.5547,1219.5,587.5547" style="stroke:#A80036;stroke-width:1.0;"/><line style="stroke:#A80036;stroke-width:1.0;" x1="457.5" x2="1221.5" y1="587.5547" y2="587.5547"/><text fill="#000000" font-family="sans-serif" font-size="13" font-weight="bold" lengthAdjust="spacing" textLength="18" x="464.5" y="582.4888">16</text><text fill="#000000" font-family="sans-serif" font-size="13" lengthAdjust="spacing" textLength="207" x="486.5" y="582.4888">track_summoners([summoner])</text><polygon fill="#A80036" points="45.5,612.6875,35.5,616.6875,45.5,620.6875,41.5,616.6875" style="stroke:#A80036;stroke-width:1.0;"/><line style="stroke:#A80036;stroke-width:1.0;" x1="39.5" x2="456.5" y1="616.6875" y2="616.6875"/><text fill="#000000" font-family="sans-serif" font-size="13" font-weight="bold" lengthAdjust="spacing" textLength="18" x="51.5" y="611.6216">17</text><text fill="#000000" font-family="sans-serif" font-size="13" lengthAdjust="spacing" textLength="128" x="73.5" y="611.6216">[summoner names]</text><!--MD5=[5fdabae384dab2c02e34aed67fd253b3]
@startuml
'https://plantuml.com/sequence-diagram

autonumber

actor IexUser
entity TenSummonersTales
entity Summoner
entity RiotApiClient
entity SummonerTracker
boundary RiotDevelopmentApi

IexUser -> TenSummonersTales : fetch_and_track_associated_summoners_for(name, region)
TenSummonersTales -> Summoner : retrieve_summoner_opponents(summoner_name, region)
Summoner -> RiotApiClient : fetch_summoner
RiotApiClient -> RiotDevelopmentApi : Summoner-V4 (/lol/summoner/v4/summoners/by-name/{summonerName})
RiotApiClient <- RiotDevelopmentApi : {summoner}
Summoner <- RiotApiClient : {summoner}
Summoner -> RiotApiClient : fetch_matches(puuid, region)
RiotApiClient -> RiotDevelopmentApi : Match-V5 (/lol/match/v5/matches/by-puuid/{puuid}/ids)
RiotApiClient <- RiotDevelopmentApi : [matches]
Summoner <- RiotApiClient : [{match}]

loop match-length times
  Summoner -> RiotApiClient : fetch_match(match_id)
  RiotApiClient -> RiotDevelopmentApi : Match-V5 (/lol/match/v5/matches/{matchId})
  RiotApiClient <- RiotDevelopmentApi : {match}
  Summoner <- RiotApiClient : {match}
end

TenSummonersTales <- Summoner : [{summoner name, puuid}]

TenSummonersTales -> SummonerTracker : track_summoners([summoner])

IexUser <- TenSummonersTales : [summoner names]

@enduml

@startuml

autonumber

actor IexUser
entity TenSummonersTales
entity Summoner
entity RiotApiClient
entity SummonerTracker
boundary RiotDevelopmentApi

IexUser -> TenSummonersTales : fetch_and_track_associated_summoners_for(name, region)
TenSummonersTales -> Summoner : retrieve_summoner_opponents(summoner_name, region)
Summoner -> RiotApiClient : fetch_summoner
RiotApiClient -> RiotDevelopmentApi : Summoner-V4 (/lol/summoner/v4/summoners/by-name/{summonerName})
RiotApiClient <- RiotDevelopmentApi : {summoner}
Summoner <- RiotApiClient : {summoner}
Summoner -> RiotApiClient : fetch_matches(puuid, region)
RiotApiClient -> RiotDevelopmentApi : Match-V5 (/lol/match/v5/matches/by-puuid/{puuid}/ids)
RiotApiClient <- RiotDevelopmentApi : [matches]
Summoner <- RiotApiClient : [{match}]

loop match-length times
  Summoner -> RiotApiClient : fetch_match(match_id)
  RiotApiClient -> RiotDevelopmentApi : Match-V5 (/lol/match/v5/matches/{matchId})
  RiotApiClient <- RiotDevelopmentApi : {match}
  Summoner <- RiotApiClient : {match}
end

TenSummonersTales <- Summoner : [{summoner name, puuid}]

TenSummonersTales -> SummonerTracker : track_summoners([summoner])

IexUser <- TenSummonersTales : [summoner names]

@enduml

PlantUML version 1.2021.16(Wed Dec 08 09:25:22 PST 2021)
(GPL source distribution)
Java Runtime: OpenJDK Runtime Environment
JVM: OpenJDK 64-Bit Server VM
Default Encoding: UTF-8
Language: en
Country: CA
--></g></svg>